<svg xmlns="http://www.w3.org/2000/svg" width="40" height="28" viewBox="0 0 40 28" fill="none"><path d="M22 0C23.6562 0 25 1.34312 25 3V13C25 14.6562 23.6562 16 22 16H3C1.34312 16 0 14.6562 0 13V3C0 1.34312 1.34312 0 3 0H22ZM5 3C4.4475 3 4 3.4475 4 4V12C4 12.55 4.4475 13 5 13C5.5525 13 6 12.55 6 12V4C6 3.4475 5.5525 3 5 3ZM14 12C14 12.55 14.45 13 15 13C15.55 13 16 12.55 16 12V4C16 3.4475 15.55 3 15 3C14.45 3 14 3.4475 14 4V12ZM10 3C9.45 3 9 3.4475 9 4V12C9 12.55 9.45 13 10 13C10.55 13 11 12.55 11 12V4C11 3.4475 10.55 3 10 3ZM19 12C19 12.55 19.45 13 20 13C20.55 13 21 12.55 21 12V4C21 3.4475 20.55 3 20 3C19.45 3 19 3.4475 19 4V12ZM27 8.5C27 7.66875 27.6688 7 28.5 7H33.05C34.1 7 35.0938 7.46875 35.7625 8.28125L39.3812 12.775C39.8 13.2188 40 13.7813 40 14.3563V20C40 21.1063 39.1063 22 38 22H37.9C37.9625 22.325 38 22.6562 38 23C38 25.7625 35.7625 28 33 28C30.2375 28 28 25.7625 28 23C28 22.6562 28.0375 22.325 28.1 22H17.9C17.9625 22.325 18 22.6562 18 23C18 25.7625 15.7625 28 13 28C11.3625 28 9.9125 27.2125 9 26C8.0875 27.2125 6.6375 28 5 28C2.23875 28 0 25.7625 0 23V20C0 18.8937 0.895625 18 2 18H27V8.5ZM30 14H36.5062L33.4375 10.1812C33.3438 10.0687 33.2 10 33.05 10H30V14ZM33 21C31.8937 21 31 21.8937 31 23C31 24.1063 31.8937 25 33 25C34.1063 25 35 24.1063 35 23C35 21.8937 34.1063 21 33 21ZM13 25C14.1062 25 15 24.1063 15 23C15 21.8937 14.1062 21 13 21C11.8938 21 11 21.8937 11 23C11 24.1063 11.8938 25 13 25ZM5 21C3.89563 21 3 21.8937 3 23C3 24.1063 3.89563 25 5 25C6.10437 25 7 24.1063 7 23C7 21.8937 6.10437 21 5 21Z" fill="#2B59FF"></path></svg>