<svg xmlns="http://www.w3.org/2000/svg" width="92" height="74" viewBox="0 0 92 74" fill="none"><path d="M70.1524 27.6267H48.3017L48.3017 35.1207C48.3017 40.5628 44.4088 45.525 39.0223 46.0698C32.8279 46.696 27.601 41.8185 27.601 35.719V18.2773L24.0776 20.4058C17.7106 24.2598 13.8063 31.1815 13.8063 38.6669L2.30588 45.3574C0.113622 46.622 -0.659778 49.4584 0.616764 51.6621L12.1171 71.6904C13.393 73.8941 16.2142 74.6528 18.4064 73.3884L33.2707 64.7542H52.9076C57.9749 64.7542 62.1079 60.5997 62.1079 55.506C65.9188 55.506 69.0081 52.4006 69.0081 48.5697V41.6292H70.1581C72.0629 41.6292 73.6082 40.0758 73.6082 38.1611L73.6083 31.2249C73.6025 29.303 72.0643 27.6267 70.1524 27.6267ZM91.385 22.3379L79.8918 2.30956C78.6159 0.105867 75.7948 -0.652781 73.6025 0.611633L58.7383 9.24577H49.7435C44.3024 9.24577 38.972 10.779 34.3474 13.6719C33.0205 14.5202 32.2011 15.9941 32.2011 17.5837L32.2011 35.849C32.2011 39.0469 34.7714 41.6292 37.9513 41.6292C41.1325 41.6292 43.7015 39.0455 43.7015 35.849V23.0026H70.1523C74.5987 23.0026 78.2026 26.6253 78.2026 31.0948V35.2132L89.703 28.5299C91.9025 27.3811 92.65 24.5488 91.385 22.3379Z" fill="#9C0CDA"></path></svg>