<svg xmlns="http://www.w3.org/2000/svg" width="32" height="32" viewBox="0 0 32 32" fill="none"><path d="M20.6006 11.0001H30.501C31.1447 11.0001 31.7135 11.4063 31.9197 12.0126C32.126 12.6188 31.926 13.2876 31.4197 13.6813L23.2445 20.0439L26.4321 30.044C26.6321 30.669 26.4008 31.3565 25.8571 31.7315C25.3195 32.1065 24.6008 32.0877 24.082 31.6815L16.0005 25.4002L7.919 31.6815C7.40024 32.0877 6.68147 32.1065 6.14207 31.7315C5.60331 31.3565 5.37143 30.669 5.57081 30.044L8.75653 20.0439L0.579216 13.6813C0.0733875 13.2876 -0.126681 12.6188 0.0812627 12.0126C0.289269 11.4063 0.859412 11.0001 1.50006 11.0001H11.4066L14.5692 1.04501C14.7692 0.422753 15.3505 0 16.0005 0C16.6568 0 17.2318 0.422753 17.4318 1.04501L20.6006 11.0001Z" fill="white"></path></svg>