<svg xmlns="http://www.w3.org/2000/svg" width="74" height="70" viewBox="0 0 74 70" fill="none"><path d="M46.25 48.5625C46.25 49.8407 45.2157 50.875 43.9375 50.875H30.0625C28.7906 50.875 27.75 49.8344 27.75 48.5625V41.625H0V62.4375C0 66.1375 3.23895 69.375 6.9375 69.375H67.0625C70.7611 69.375 74 66.1361 74 62.4375V41.625H46.25V48.5625ZM67.0625 13.875H55.5V6.9375C55.5 3.23895 52.2625 0 48.5625 0H25.4375C21.7375 0 18.5 3.23895 18.5 6.9375V13.875H6.9375C3.23895 13.875 0 17.1125 0 20.8125V37H74V20.8125C74 17.1125 70.7625 13.875 67.0625 13.875ZM48.5625 13.875H25.4375V6.9375H48.5625V13.875Z" fill="#FF4954"></path></svg>