<svg xmlns="http://www.w3.org/2000/svg" width="30" height="30" viewBox="0 0 30 30" fill="none"><path d="M11.1973 13.125C11.1973 12.0867 10.357 11.2477 9.32227 11.2477L8.4375 11.25C6.3668 11.25 4.6875 12.9293 4.6875 15.0047V17.8049C4.6875 19.8809 6.36914 21.5625 8.4375 21.5625H9.375C10.4098 21.5625 11.25 20.7211 11.25 19.684L11.1973 13.125ZM15 0C6.61523 0 0.268535 6.97852 0.00121875 15L0 17.3438C0 18.123 0.629883 18.75 1.35352 18.75C2.07715 18.75 2.8125 18.123 2.8125 17.3438V15C2.8125 8.2793 8.28164 2.82422 15 2.82422C21.7207 2.82422 27.1875 8.2793 27.1875 15V23.4375C27.1875 24.7318 26.1381 25.7812 24.8438 25.7812H18.3574C17.8711 24.9434 16.9746 24.375 15.9375 24.375H14.168C12.808 24.375 11.5605 25.2943 11.3045 26.6303C10.957 28.4297 12.3281 30 14.0098 30H15.9375C16.9758 30 17.8729 29.431 18.3598 28.5938H24.8438C27.6914 28.5938 30 26.2852 30 23.4375V15C29.7305 6.97852 23.3848 0 15 0ZM21.5625 21.5625C23.6332 21.5625 25.3125 19.8809 25.3125 17.8049V15.0059C25.3125 12.9316 23.6309 11.25 21.5625 11.25H20.625C19.5902 11.25 18.75 12.0902 18.75 13.1273V19.6816C18.75 20.7246 19.5879 21.5625 20.625 21.5625H21.5625Z" fill="#FF7575"></path></svg>