<svg xmlns="http://www.w3.org/2000/svg" width="74" height="74" viewBox="0 0 74 74" fill="none"><path d="M37.5364 12.4299L44.7135 15.4117L47.6936 22.5907C47.8562 22.934 48.1991 23.1265 48.5605 23.1265C48.9218 23.1265 49.2652 22.934 49.4277 22.5907L52.4078 15.4117L59.5792 12.4299C59.9224 12.2673 60.1208 11.9239 60.1208 11.5624C60.1208 11.201 59.9224 10.858 59.5792 10.6954L52.408 7.71523L49.4279 0.542003C49.2718 0.198734 48.9249 0 48.5636 0C48.2023 0 47.8595 0.198734 47.6969 0.542003L44.7168 7.71523L37.5397 10.697C37.1965 10.8596 37.0032 11.2027 37.0032 11.564C37.0032 11.9254 37.1895 12.2681 37.5364 12.4299ZM52.6392 38.6195L37.493 36.411L30.7293 22.6485C29.5189 20.1914 26.0004 20.1726 24.772 22.6485L17.9966 36.2925L2.85189 38.6195C0.123579 38.8941 -0.971081 42.3774 1.01599 44.2997L11.9811 54.9953L9.50971 70.1135C9.05807 72.8423 11.9233 74.8904 14.3253 73.6084L27.8803 66.4713L41.428 73.6084C42.5481 74.2046 43.9037 74.0978 44.9327 73.357C45.8143 72.6163 46.4676 71.3465 46.2507 70.118L43.5342 54.9953L54.5065 44.2997C56.4691 42.3919 55.3707 38.8941 52.6392 38.6195ZM73.5664 31.6963L67.8403 29.2927L65.4383 23.5649C65.3119 23.2938 65.0408 23.1308 64.7517 23.1308C64.4627 23.1308 64.1918 23.2938 64.0654 23.5649L61.6634 29.2927L55.9344 31.6963C55.6634 31.8228 55.5005 32.0932 55.5005 32.3823C55.5005 32.6714 55.6634 32.943 55.9344 33.0694L61.6605 35.473L64.0625 41.2009C64.1889 41.4719 64.4598 41.6338 64.7488 41.6338C65.0379 41.6338 65.309 41.4719 65.4355 41.2009L67.8375 35.473L73.5635 33.0694C73.841 32.9393 74 32.6647 74 32.3757C74 32.0866 73.841 31.812 73.5664 31.6963Z" fill="#0B60FF"></path></svg>