<svg xmlns="http://www.w3.org/2000/svg" width="32" height="28" viewBox="0 0 32 28" fill="none"><path d="M4 23C4 23.55 4.4475 24 5 24H30C31.1063 24 32 24.8937 32 26C32 27.1063 31.1063 28 30 28H5C2.23875 28 0 25.7625 0 23V2C0 0.895625 0.895625 0 2 0C3.10437 0 4 0.895625 4 2V23ZM8 18V12.75C8 12.2688 8.175 11.8 8.49375 11.3813L13.4563 5.7625C14.2688 4.8375 15.7125 4.85625 16.4438 5.8L18.95 8.7375C19.5125 9.41875 20.5375 9.4625 21.1625 8.8375L22.475 7.525C23.2938 6.70625 24.65 6.75625 25.4062 7.6375L29.5187 12.4375C29.8312 12.8 30 13.2625 30 13.7375V18C30 19.1063 29.1063 20 28 20H9.94375C8.89375 20 7.94375 19.1063 7.94375 18H8Z" fill="white"></path></svg>