<svg xmlns="http://www.w3.org/2000/svg" width="84" height="68" viewBox="0 0 84 68" fill="none"><path d="M83.8425 28.7938L72.5944 1.42109C72.2925 0.588227 71.4262 0 70.6519 0C70.4222 0 70.0598 0.0727148 69.8465 0.161898L54.4509 6.61791C53.7372 6.91887 53.1549 7.79689 53.1549 8.57955C53.1549 8.8141 53.2213 9.17748 53.3115 9.3933L64.5636 36.8722C64.8589 37.5964 65.7308 38.1864 66.5061 38.1864C66.7358 38.1864 67.0932 38.1154 67.3064 38.0262L82.7021 31.5702C83.4225 31.2773 84 30.4008 84 29.4977C84 29.3781 83.9212 29.0195 83.8425 28.7938ZM49.9275 12.2373L9.74531 32.1008C8.64937 32.6453 8.13619 33.7477 8.55881 34.9031L9.70764 37.7095L1.29649 41.225C0.58275 41.5305 0 42.407 0 43.1906C0 43.423 0.0738281 43.7882 0.159994 44.004L2.79287 50.4347C3.08818 51.159 3.95784 51.7464 4.73274 51.7464C4.96243 51.7464 5.32297 51.6738 5.53626 51.5845L13.9387 48.0648L15.0855 50.8659C15.508 51.8993 16.7287 52.3919 17.8772 51.992L34.5459 46.1894C34.568 46.2182 34.5927 46.2535 34.615 46.282L28.5337 63.6305C27.9555 65.2906 28.8128 67.1128 30.4539 67.6985C30.7912 67.9469 31.1456 68 31.3819 68C32.678 68 33.8966 67.1823 34.3521 65.875L39.9827 49.725C40.5977 49.8524 41.2305 49.931 41.8832 49.931C42.5359 49.931 43.1723 49.8641 43.7876 49.7367L49.4143 65.8734C49.98 67.1766 51.2006 68 52.3819 68C52.7305 68 53.0833 67.9419 53.432 67.8174C55.0726 67.2322 55.9297 65.4095 55.3522 63.7493L49.2596 46.2845C50.5372 44.6536 51.332 42.6189 51.332 40.3757C51.332 40.3583 51.3263 40.3437 51.3263 40.3263L60.0649 37.2889L49.9275 12.2373ZM41.8819 43.443C40.1454 43.443 38.7319 42.0126 38.7319 40.2555C38.7319 38.4984 40.1454 37.068 41.8819 37.068C43.6183 37.068 45.0319 38.4984 45.0319 40.2555C45.0319 42.1281 43.7325 43.443 41.8819 43.443Z" fill="#00CE9D"></path></svg>