<svg xmlns="http://www.w3.org/2000/svg" width="62" height="82" viewBox="0 0 62 82" fill="none"><path d="M58.9807 14.9554L46.9311 3.00134C44.9823 1.07995 42.3505 1.60156e-05 39.6219 1.60156e-05L10.3333 0C4.62578 0 0 4.58848 0 10.25L0.00104948 71.75C0.00104948 77.4115 4.62683 82 10.3344 82H51.6667C57.35 82 62 77.3875 62 71.75V22.1977C62 19.491 60.9182 16.8805 58.9807 14.9554ZM51.6667 74.3125H10.3366C8.90992 74.3125 7.89854 73.1653 7.75323 71.8942L7.75 10.2708C7.74994 8.85553 8.90653 7.70834 10.3333 7.70834H36.1667V20.5C36.1667 23.33 38.4804 25.625 41.3333 25.625H54.1047V71.75C54.25 73.1594 53.0875 74.3125 51.6667 74.3125Z" fill="#3295D6"></path></svg>