<svg xmlns="http://www.w3.org/2000/svg" width="22" height="24" viewBox="0 0 22 24" fill="none"><path d="M18.8571 0.625C20.5906 0.625 22 2.07988 22 3.875V20.125C22 21.9176 20.5906 23.375 18.8571 23.375H3.14286C1.40692 23.375 0 21.9176 0 20.125V3.875C0 2.07988 1.40692 0.625 3.14286 0.625H18.8571ZM16.6866 9.75547C17.2219 9.20195 17.2219 8.29805 16.6866 7.74453C16.1513 7.19102 15.2772 7.19102 14.742 7.74453L9.42857 13.2391L7.25804 10.9945C6.72277 10.441 5.84866 10.441 5.31339 10.9945C4.77665 11.548 4.77665 12.452 5.31339 13.0055L8.45625 16.2555C8.99152 16.809 9.86563 16.809 10.4009 16.2555L16.6866 9.75547Z" fill="#00AA63"></path></svg>