<svg xmlns="http://www.w3.org/2000/svg" width="80" height="62" viewBox="0 0 80 62" fill="none"><path d="M8.88889 61.625H13.3333V0.375H8.88889C3.97917 0.375 0 4.29336 0 9.125V52.875C0 57.7066 3.97917 61.625 8.88889 61.625ZM17.7778 61.625H62.2222V0.375H17.7778V61.625ZM24.4444 27.4453C24.4444 26.2374 25.4394 25.2578 26.6667 25.2578H34.0417V17.875C34.0417 16.667 35.0368 15.6875 36.2639 15.6875H43.4861C44.7133 15.6875 45.7083 16.667 45.7083 17.875V25.2578H53.3333C54.5606 25.2578 55.5556 26.2374 55.5556 27.4453V34.5547C55.5556 35.7629 54.5606 36.7422 53.3333 36.7422H45.8333V44.125C45.8333 45.333 44.8383 46.3125 43.6111 46.3125H36.3889C35.1618 46.3125 34.1667 45.333 34.1667 44.125V36.7422H26.6667C25.4394 36.7422 24.4444 35.7629 24.4444 34.5547V27.4453ZM71.1111 61.625H66.6667V0.375H71.1111C76.0208 0.375 80 4.29336 80 9.125V52.875C80 57.7066 76.0139 61.625 71.1111 61.625Z" fill="#00BD95"></path></svg>