<svg xmlns="http://www.w3.org/2000/svg" width="40" height="32" viewBox="0 0 40 32" fill="none"><path d="M19.9937 20C23.5819 20 26.4375 17.09 26.4375 13.5C26.4375 9.91 23.5287 7 19.9937 7C16.4056 7 13.55 9.91 13.55 13.5C13.4938 17.0875 16.4062 20 19.9937 20ZM23.1187 22H16.8813C11.975 22 8 25.7312 8 30.3312C8 31.2562 8.79375 32 9.775 32H30.225C31.2063 32 32 31.2562 32 30.3312C32 25.7312 28.025 22 23.1187 22ZM32 10C34.7612 10 37 7.76125 37 5C37 2.23875 34.7625 0 32 0C29.2388 0 27 2.23875 27 5C27 7.76125 29.2375 10 32 10ZM11.4937 13.5C11.4937 13.1594 11.5552 12.8356 11.5943 12.5056C10.9125 12.1312 10.1625 12 9.36875 12H5.505C2.465 12 0 14.6125 0 17.8312C0 18.475 0.492938 19 1.10125 19H13.57C12.2937 17.5125 11.4937 15.6062 11.4937 13.5ZM8 10C10.7612 10 13 7.76125 13 5C13 2.23875 10.7625 0 8 0C5.23875 0 3 2.23875 3 5C3 7.76125 5.23875 10 8 10ZM34.4938 12H30.6287C29.8288 12 29.0738 12.1898 28.3875 12.515C28.425 12.8438 28.4875 13.1625 28.4875 13.5C28.4875 15.6069 27.6888 17.5131 26.415 19H38.8963C39.5063 19 40 18.475 40 17.8312C40 14.6125 37.5375 12 34.4938 12Z" fill="white"></path></svg>