<svg xmlns="http://www.w3.org/2000/svg" width="70" height="70" viewBox="0 0 70 70" fill="none"><path d="M50.0938 29.1895L54.0039 29.8457C54.4551 31.4863 54.6875 33.209 54.6875 35C54.6875 45.8691 45.8691 54.6875 35 54.6875C24.1309 54.6875 15.3125 45.8691 15.3125 35C15.3125 24.1309 24.1309 15.3125 35 15.3125C36.791 15.3125 38.5137 15.5449 40.1543 15.873L40.8105 19.9062L36.5449 24.1719C36.0391 24.1035 35.5195 23.9395 35 23.9395C28.957 23.9395 24.0625 28.957 24.0625 34.877C24.0625 41.043 28.957 45.9375 35 45.9375C41.043 45.9375 45.9375 41.043 45.9375 34.877C45.9375 34.4805 45.8965 33.9609 45.8281 33.4551L50.0938 29.1895ZM68.0449 23.4473C69.1934 26.9473 70 30.9531 70 35C70 54.332 54.332 70 35 70C15.668 70 0 54.332 0 35C0 15.668 15.668 0 35 0C39.0469 0 42.9297 0.686875 46.5527 1.95098L39.3887 9.11504C37.9531 8.87441 36.4902 8.75 35 8.75C20.3848 8.75 8.75 20.3848 8.75 35C8.75 49.4922 20.3848 61.25 35 61.25C49.4922 61.25 61.25 49.4922 61.25 35C61.25 33.5098 61.127 32.0469 60.8809 30.6113L68.0449 23.4473ZM37.2012 37.2012C36.0391 38.5957 33.9609 38.5957 32.6758 37.2012C31.4043 36.0391 31.4043 33.9609 32.6758 32.6758L45.2812 20.084L44.1191 13.1578C43.8867 11.7646 44.3379 10.3441 45.3359 9.34609L52.3359 2.34609C53.334 1.23525 55.3301 1.62148 55.918 3.08027L59.0625 10.8145L66.9238 13.959C68.373 14.6699 68.6465 16.543 67.6484 17.6641L60.6484 24.6641C59.6504 25.6621 58.2285 25.9902 56.8477 25.8809L49.916 24.7188L37.2012 37.2012Z" fill="#2B59FF"></path></svg>