<svg xmlns="http://www.w3.org/2000/svg" width="74" height="74" viewBox="0 0 74 74" fill="none"><path d="M27.62 32.375C27.62 29.8284 25.5431 27.7442 22.995 27.7442H18.3685C13.255 27.7442 9.11853 31.8807 9.11853 36.8642L9.24428 46.1922C9.24428 51.3057 13.3822 55.4422 18.4957 55.4422H23.1207C25.6688 55.4422 27.7457 53.3639 27.7457 50.8172L27.62 32.375ZM22.995 50.8172H18.37C15.8219 50.8172 13.745 48.7389 13.745 46.1922V37C13.745 34.4534 15.8233 32.375 18.37 32.375L22.9979 32.375L22.995 50.8172ZM55.37 55.4422C60.4835 55.4422 64.6214 51.3057 64.6214 46.1922L64.6218 36.9957C64.6218 31.8822 60.4853 27.8758 55.3718 27.8758H50.8769C48.3288 27.8758 46.2519 29.9599 46.2519 32.5065L46.2504 50.9487C46.2504 53.4954 48.3287 55.5737 50.8754 55.5737H55.37V55.4422ZM50.745 32.375L55.2399 32.375C57.788 32.375 59.8649 34.4534 59.8649 37V46.1922C59.8649 48.7389 57.7865 50.8172 55.2399 50.8172H50.6149L50.745 32.375ZM40.4977 0.163492C18.3122 -1.90186 0.578182 15.7873 5.72621e-05 37.0045L-0.00292008 39.3054C-0.00657672 40.5844 1.03418 41.625 2.31256 41.625C3.57793 41.625 4.61928 40.5899 4.62506 39.3241L4.63717 37C5.13381 18.5867 20.5958 2.98171 40.0208 4.76378C56.8297 6.30737 69.375 20.9946 69.375 37.8759V62.3161C69.375 66.1476 66.2691 69.2536 62.4375 69.2536H50.44C51.0298 67.6811 51.1062 65.8514 50.1102 63.9508C48.796 61.4432 46.0575 60.0036 43.2276 60.0036L34.9477 60.125C31.5931 60.125 28.5175 62.3927 27.8845 65.688C27.0274 70.1266 30.4094 74 34.5575 74L62.1774 74C68.5642 74 73.7413 68.8229 73.7413 62.5676V37.9973C74 18.7313 59.677 1.94975 40.4977 0.163492ZM43.8075 69.375H34.5575C33.2746 69.375 32.245 68.3452 32.245 67.0625C32.245 65.7798 33.2749 64.75 34.5575 64.75H43.8089C45.0918 64.75 46.1214 65.7798 46.1214 67.0625C46.1214 68.3452 45.2239 69.375 43.8075 69.375Z" fill="#3295D6"></path></svg>