<svg xmlns="http://www.w3.org/2000/svg" width="30" height="29" viewBox="0 0 30 29" fill="none"><path d="M15 0C6.71484 0 0 6.49102 0 14.5C0 22.509 6.71484 29 15 29C23.2852 29 30 22.509 30 14.5C30 6.49102 23.2852 0 15 0ZM22.4766 18.21L21.7957 21.0641C21.7 21.4676 21.3328 21.75 20.9027 21.75C13.5141 21.75 7.50234 15.9387 7.50234 8.79062C7.50234 8.37556 7.79437 8.02088 8.21191 7.92855L11.1639 7.27039C11.5942 7.17393 12.0357 7.38985 12.2145 7.78367L13.5762 10.858C13.7355 11.22 13.6279 11.6413 13.313 11.89L11.7363 13.1406C12.7318 15.101 14.3813 16.6948 16.4104 17.6577L17.7006 16.1335C17.9551 15.8282 18.3949 15.7229 18.7693 15.8795L21.9475 17.1964C22.3535 17.366 22.5762 17.7965 22.4766 18.21Z" fill="#781BFF"></path></svg>