<svg xmlns="http://www.w3.org/2000/svg" width="78" height="68" viewBox="0 0 78 68" fill="none"><path d="M43.3333 44.625C42.1417 44.625 41.1667 43.6688 41.1667 42.5V38.25C41.1667 37.0812 42.1417 36.125 43.3333 36.125H47.6667C48.8583 36.125 49.8333 37.0812 49.8333 38.25V42.5C49.8333 43.6688 48.8583 44.625 47.6667 44.625H43.3333ZM67.1667 55.25C67.1667 56.4188 66.1917 57.375 65 57.375H60.6667C59.475 57.375 58.5 56.4188 58.5 55.25V51C58.5 49.8312 59.475 48.875 60.6667 48.875H65C66.1917 48.875 67.1667 49.8312 67.1667 51V55.25ZM13 44.625C11.8029 44.625 10.8333 43.6688 10.8333 42.5V38.25C10.8333 37.0812 11.8029 36.125 13 36.125H17.3333C18.525 36.125 19.5 37.0812 19.5 38.25V42.5C19.5 43.6688 18.525 44.625 17.3333 44.625H13ZM19.5 55.25C19.5 56.4188 18.525 57.375 17.3333 57.375H13C11.8029 57.375 10.8333 56.4188 10.8333 55.25V51C10.8333 49.8312 11.8029 48.875 13 48.875H17.3333C18.525 48.875 19.5 49.8312 19.5 51V55.25ZM30.3333 44.625C29.1417 44.625 28.1667 43.6688 28.1667 42.5V38.25C28.1667 37.0812 29.1417 36.125 30.3333 36.125H34.6667C35.8583 36.125 36.8333 37.0812 36.8333 38.25V42.5C36.8333 43.6688 35.8583 44.625 34.6667 44.625H30.3333ZM49.8333 17C49.8333 18.1688 48.8583 19.125 47.6667 19.125H43.3333C42.1417 19.125 41.1667 18.1688 41.1667 17V12.75C41.1667 11.5759 42.1417 10.625 43.3333 10.625H47.6667C48.8583 10.625 49.8333 11.5759 49.8333 12.75V17ZM34.6667 10.625C35.8583 10.625 36.8333 11.5759 36.8333 12.75V17C36.8333 18.1688 35.8583 19.125 34.6667 19.125H30.3333C29.1417 19.125 28.1667 18.1688 28.1667 17V12.75C28.1667 11.5759 29.1417 10.625 30.3333 10.625H34.6667ZM49.8333 29.75C49.8333 30.9188 48.8583 31.875 47.6667 31.875H43.3333C42.1417 31.875 41.1667 30.9188 41.1667 29.75V25.5C41.1667 24.3312 42.1417 23.375 43.3333 23.375H47.6667C48.8583 23.375 49.8333 24.3312 49.8333 25.5V29.75ZM60.6667 44.625C59.475 44.625 58.5 43.6688 58.5 42.5V38.25C58.5 37.0812 59.475 36.125 60.6667 36.125H65C66.1917 36.125 67.1667 37.0812 67.1667 38.25V42.5C67.1667 43.6688 66.1917 44.625 65 44.625H60.6667ZM19.5 29.75C19.5 30.9188 18.525 31.875 17.3333 31.875H13C11.8029 31.875 10.8333 30.9188 10.8333 29.75V25.5C10.8333 24.3312 11.8029 23.375 13 23.375H17.3333C18.525 23.375 19.5 24.3312 19.5 25.5V29.75ZM30.3333 31.875C29.1417 31.875 28.1667 30.9188 28.1667 29.75V25.5C28.1667 24.3312 29.1417 23.375 30.3333 23.375H34.6667C35.8583 23.375 36.8333 24.3312 36.8333 25.5V29.75C36.8333 30.9188 35.8583 31.875 34.6667 31.875H30.3333ZM8.66667 68C3.87969 68 0 64.1883 0 59.5V21.25C0 16.5617 3.87969 12.75 8.66667 12.75H17.3333V8.5C17.3333 3.80508 21.2198 0 26 0H52C56.7802 0 60.6667 3.80508 60.6667 8.5V25.5H69.3333C74.1135 25.5 78 29.3117 78 34V59.5C78 64.1883 74.1135 68 69.3333 68H8.66667ZM23.8333 19.125H8.66667C7.46958 19.125 6.5 20.0812 6.5 21.25V59.5C6.5 60.6688 7.46958 61.625 8.66667 61.625H34.6667V55.25C34.6667 52.8992 36.6031 51 39 51C41.3969 51 43.3333 52.8992 43.3333 55.25V61.625H69.3333C70.525 61.625 71.5 60.6688 71.5 59.5V34C71.5 32.8312 70.525 31.875 69.3333 31.875H54.1667V8.5C54.1667 7.32594 53.1917 6.375 52 6.375H26C24.8083 6.375 23.8333 7.32594 23.8333 8.5V19.125Z" fill="#3295D6"></path></svg>