<svg xmlns="http://www.w3.org/2000/svg" width="66" height="66" viewBox="0 0 66 66" fill="none"><path d="M6.21548 44.55L21.4508 59.7867L29.2076 56.8773L9.12462 36.7898L6.21548 44.55ZM0.262513 60.4184C-0.305395 61.933 0.0651758 63.641 1.20911 64.7857C1.9942 65.5746 3.04985 66 4.12482 66C4.61217 66 5.10364 65.9154 5.57488 65.7382L17.2076 61.376L4.62364 48.7909L0.262513 60.4184ZM19.4117 25.9617C18.4192 24.9691 16.9884 24.5566 15.6222 24.8402C14.2533 25.1383 13.1255 26.1092 12.6331 27.4222L10.7152 32.5488L33.4521 55.2879L38.5756 53.3672C39.8891 52.8758 40.8596 51.7481 41.1574 50.3778C41.4514 49.0089 41.0326 47.578 40.0417 46.5867L19.4117 25.9617ZM23.7167 20.625C24.4176 20.625 25.1178 20.3914 25.6978 19.908C30.3341 16.0408 32.9958 10.3612 32.9958 4.32326V3.09375C32.9958 1.38574 31.6102 0 30.0183 0C28.4265 0 27.0409 1.38574 27.0409 3.09375V4.32236C27.0409 8.51954 25.1926 12.4679 21.9663 15.1543C20.417 16.2551 20.2495 18.2016 21.3451 19.5164C21.9509 20.2512 22.8273 20.625 23.7167 20.625ZM8.24943 8.13398C10.527 8.13398 12.258 6.28676 12.258 4.125C12.258 1.84723 10.4123 0.116016 8.24943 0.116016C6.08659 0.116016 4.12482 1.84723 4.12482 4.125C4.12482 6.40277 5.97187 8.13398 8.24943 8.13398ZM62.7845 33H61.556C55.6309 33 49.9595 35.6684 46.0927 40.2961C44.9971 41.6096 45.1744 43.5587 46.4874 44.6544C47.0594 45.143 47.7683 45.375 48.3484 45.375C49.2345 45.375 50.1129 44.9963 50.7252 44.2632C53.5299 41.0309 57.4741 39.1875 61.676 39.1875H62.9045C64.6124 39.1875 65.882 37.8018 65.882 36.0938C65.882 34.3857 64.6019 33 62.7845 33ZM50.2302 22.6875C52.9215 19.5332 52.7269 16.4755 52.5825 14.2441C52.4577 12.3144 52.4457 11.4121 53.4647 10.2197C54.4797 9.0313 55.3697 8.90613 57.2877 8.7334C59.5111 8.53205 62.5607 8.25799 65.2585 5.1034C66.3662 3.8066 66.2172 1.85238 64.9162 0.741211C63.6233 -0.354492 61.6732 -0.217594 60.5544 1.08359C59.5393 2.27197 58.6493 2.39714 56.7314 2.56988C54.508 2.77123 51.4583 3.04528 48.7606 6.19987C46.0693 9.35421 46.2639 12.4119 46.4083 14.6432C46.5331 16.573 46.5451 17.4753 45.5261 18.6677C44.5151 19.8521 43.6249 19.9774 41.7121 20.1501C39.4887 20.3475 36.4391 20.6174 33.7452 23.7711C32.6362 25.0723 32.778 27.0316 34.0798 28.1402C34.6598 28.6301 35.3816 28.875 35.9745 28.875C36.8486 28.875 37.7146 28.5084 38.3269 27.7914C39.3379 26.607 40.228 26.4817 42.137 26.309C44.4815 26.1164 47.5234 25.8457 50.2302 22.6875ZM61.7533 53.625C59.4758 53.625 57.7447 55.4722 57.7447 57.634C57.7447 59.9118 59.5918 61.643 61.7533 61.643C63.9149 61.643 65.762 59.7957 65.762 57.634C65.878 55.4684 64.1508 53.625 61.7533 53.625ZM61.7533 16.5C59.4758 16.5 57.7447 18.3472 57.7447 20.509C57.7447 22.7868 59.5918 24.518 61.7533 24.518C63.9149 24.518 65.762 22.6707 65.762 20.509C65.878 18.3434 64.1508 16.5 61.7533 16.5Z" fill="#FF5C00"></path></svg>